<svg xmlns="http://www.w3.org/2000/svg" viewBox="0 0 185.19 185.19"><defs><style>.cls-1{fill:#4083a5;}</style></defs><title>Asset 8</title><g id="Layer_2" data-name="Layer 2"><g id="Layer_1-2" data-name="Layer 1"><circle cx="92.6" cy="92.6" r="89.6" transform="translate(-22.86 154.39) rotate(-73.15)"/><path class="cls-1" d="M92.6,6A86.6,86.6,0,1,1,6,92.6,86.69,86.69,0,0,1,92.6,6m0-6a92.6,92.6,0,1,0,92.59,92.6A92.6,92.6,0,0,0,92.6,0Z"/><path class="cls-1" d="M94.9,113.49l41.61-19.67v27.27a74.73,74.73,0,0,1-87.83,0V93.82l41.61,19.67a5.37,5.37,0,0,0,4.61,0Z"/><path class="cls-1" d="M146.39,89.14a126.49,126.49,0,0,0,1.83,15.7c-2.59,3.7-5.83,3.7-8.42,0a126.19,126.19,0,0,0,1.68-13.37Z"/><path class="cls-1" d="M157.86,79a2.63,2.63,0,0,1-1.59,2.62L93.79,111.12a2.78,2.78,0,0,1-2.39,0L28.92,81.59A2.63,2.63,0,0,1,27.33,79v-.15a2.64,2.64,0,0,1,1.6-2.62L91.4,46.67a2.78,2.78,0,0,1,2.39,0l62.48,29.54a2.63,2.63,0,0,1,1.59,2.61Z"/></g></g></svg>