<svg xmlns="http://www.w3.org/2000/svg" viewBox="0 0 189 189"><defs><style>.cls-1{fill:#4083a5;}</style></defs><title>Asset 1</title><g id="Layer_2" data-name="Layer 2"><g id="Layer_1-2" data-name="Layer 1"><circle cx="94.5" cy="94.5" r="91.5"/><path class="cls-1" d="M94.5,6A88.5,88.5,0,1,1,6,94.5,88.6,88.6,0,0,1,94.5,6m0-6A94.5,94.5,0,1,0,189,94.5,94.5,94.5,0,0,0,94.5,0Z"/><path class="cls-1" d="M104.93,101.25h40C130.28,129.48,94.5,150,94.5,150S60.18,130.32,45,103H61.47a1.3,1.3,0,0,0,1.25-1l4.92-17.54,5.62,17.59a1.34,1.34,0,0,0,1.15.91,1.32,1.32,0,0,0,1.27-.74l5.18-10.7L89.8,116a1.3,1.3,0,0,0,1.22.86h0a1.32,1.32,0,0,0,1.21-.92l8.25-27,3.15,11.33A1.31,1.31,0,0,0,104.93,101.25Z"/><path class="cls-1" d="M151,78.21h0a48.58,48.58,0,0,1-4.83,20.43H105.92L101.85,84a1.32,1.32,0,0,0-1.25-1,1.35,1.35,0,0,0-1.26.93l-8.43,27.57L82.25,87.77a1.28,1.28,0,0,0-1.15-.86,1.33,1.33,0,0,0-1.25.73l-5.1,10.54-6-18.63a1.24,1.24,0,0,0-1.26-.9,1.3,1.3,0,0,0-1.23.95l-5.82,20.78H43.66A49.7,49.7,0,0,1,38,78.21h0c0-.28,0-.56,0-.85a28.26,28.26,0,0,1,56.51,0c0,.29,0,.57,0,.85h0c0-.28,0-.56,0-.85a28.26,28.26,0,0,1,56.51,0C151,77.65,151,77.93,151,78.21Z"/></g></g></svg>