<svg xmlns="http://www.w3.org/2000/svg" viewBox="0 0 189 189"><defs><style>.cls-1{fill:#4083a5;}</style></defs><title>Asset 3</title><g id="Layer_2" data-name="Layer 2"><g id="Layer_1-2" data-name="Layer 1"><circle cx="94.5" cy="94.5" r="91.5"/><path class="cls-1" d="M94.5,6A88.5,88.5,0,1,1,6,94.5,88.6,88.6,0,0,1,94.5,6m0-6A94.5,94.5,0,1,0,189,94.5,94.5,94.5,0,0,0,94.5,0Z"/><path class="cls-1" d="M41.13,99.85v27.32a6.59,6.59,0,0,0,6.57,6.56h93.61a6.58,6.58,0,0,0,6.56-6.56V99.85ZM141.31,62.26H115.85V54.34a5.09,5.09,0,0,0-5.08-5.07H78.24a5.09,5.09,0,0,0-5.09,5.07v7.92H47.7a6.59,6.59,0,0,0-6.57,6.56V97.07H147.87V68.82A6.58,6.58,0,0,0,141.31,62.26ZM107.74,92a2.3,2.3,0,0,1-2.3,2.29H83.57A2.3,2.3,0,0,1,81.27,92V85.9a2.3,2.3,0,0,1,2.3-2.29h21.87a2.3,2.3,0,0,1,2.3,2.29Zm3.47-30.66H77.79V55.38A2.42,2.42,0,0,1,80.2,53h28.61a2.41,2.41,0,0,1,2.4,2.4Z"/></g></g></svg>