<svg xmlns="http://www.w3.org/2000/svg" viewBox="0 0 240.43 257.65"><defs><style>.cls-1{fill:#3b3450;}.cls-2{fill:#fff;}.cls-3{fill:#ffb251;stroke:#fff;stroke-miterlimit:10;}</style></defs><title>lpAsset 2</title><g id="Layer_2" data-name="Layer 2"><g id="Layer_1-2" data-name="Layer 1"><path class="cls-1" d="M40.18,215.23h7.15v41.71H40.18V239H22.36v17.94H15.21V215.23h7.15v17H40.18Z"/><path class="cls-1" d="M80.1,238.52v18.42H73.48v-3.58a11.43,11.43,0,0,1-9.29,4.29c-5.31,0-10.19-3.45-10.19-9.47,0-5.42,4.94-9.36,11.08-9.36,5.18,0,7.87,2,7.87,2v-1.61c0-3.69-3.58-4.89-6.08-4.89a22.89,22.89,0,0,0-8.46,2.09l-2.33-5.9A28.68,28.68,0,0,1,67.23,228C75.33,228,80.1,232.09,80.1,238.52ZM73,248.42V245.5a14.33,14.33,0,0,0-6.44-1.43c-2.2,0-5.24,1-5.24,4s2.92,3.63,5.12,3.63A8.4,8.4,0,0,0,73,248.42Z"/><path class="cls-1" d="M107.5,247.52l4.71,4.77a15.28,15.28,0,0,1-11.68,5.36,14.84,14.84,0,1,1,0-29.67,15.14,15.14,0,0,1,11.56,5.24l-4.94,4.41a8.8,8.8,0,0,0-6.62-3,7.82,7.82,0,0,0-7.92,8.16c0,4.41,3.09,8.17,7.92,8.17A8.33,8.33,0,0,0,107.5,247.52Z"/><path class="cls-1" d="M124.84,239.84,135,228.69h9.24L131.81,242,145,256.94h-9.42L124.84,244.6v12.34h-7.15V211.89h7.15Z"/><path class="cls-1" d="M156,215.23,176.85,244V215.23H184v41.71h-6.43l-20.86-28.66v28.66h-7.15V215.23Z"/><path class="cls-1" d="M222.85,245.85l4.77,4.71a21,21,0,0,1-16,7.09c-12,0-21.15-9.23-21.15-21.57s9.11-21.57,21.15-21.57A20.89,20.89,0,0,1,227,221.07l-4.83,4.7a14.33,14.33,0,0,0-10.6-4.58c-8.22,0-13.89,6.85-13.89,14.89s5.67,14.9,13.89,14.9A14.83,14.83,0,0,0,222.85,245.85Z"/><polygon class="cls-2" points="60.47 117.33 73.79 101.96 89.85 101.96 60.47 117.33"/><polygon class="cls-2" points="89.85 101.96 78.58 115.96 60.47 117.33 89.85 101.96"/><polygon class="cls-1" points="143.3 90.53 168.22 87.54 175.2 127.42 143.3 90.53"/><path class="cls-2" d="M168,87.82l6.78,38.75-31-35.85L168,87.82m.41-.55L142.8,90.34l.26.29,32.54,37.63-7.17-41Z"/><polygon class="cls-1" points="143.05 91.01 175.25 128.24 143.05 156.75 143.05 91.01"/><path class="cls-2" d="M143.3,91.68l31.6,36.54-31.6,28V91.68m-.5-1.34v67l32.8-29L142.8,90.34Z"/><polygon class="cls-1" points="93.24 68.72 124.02 68.72 98.2 90.57 93.24 68.72"/><path class="cls-2" d="M123.33,69l-25,21.13L93.55,69h29.78m1.37-.5H92.93L98.05,91,124.7,68.48Z"/><polygon class="cls-1" points="124.67 68.83 142.28 90.1 98.75 90.76 124.67 68.83"/><path class="cls-2" d="M124.63,69.18l7.43,9,9.69,11.71-42.31.64,25.19-21.32m.07-.7L98.05,91l44.75-.68L132.44,77.83l-7.74-9.35Z"/><polygon class="cls-1" points="132.75 77.88 125.11 68.58 179.87 47.21 142.81 89.95 132.75 77.88"/><path class="cls-2" d="M179,47.81,142.81,89.57l-9.87-11.85-7.42-9L179,47.81m1.7-1.2-56,21.86L132.55,78l10.25,12.3,37.92-43.73Z"/><polygon class="cls-1" points="109.34 121.78 142.55 90.91 142.55 156.68 109.34 121.78"/><path class="cls-2" d="M142.3,91.49v64.56l-32.61-34.26,32.61-30.3m.5-1.15L109,121.77,142.8,157.3v-67Z"/><polygon class="cls-1" points="98.4 91.27 142.16 90.6 109.09 121.33 98.4 91.27"/><path class="cls-2" d="M141.51,90.86l-32.31,30L98.75,91.51l42.76-.65m1.29-.52L98.05,91,109,121.77,142.8,90.34Z"/><polygon class="cls-1" points="109.32 122.48 142.41 157.25 115.33 174.64 109.32 122.48"/><path class="cls-2" d="M109.65,123.2l32.37,34-26.48,17-5.89-51m-.67-1.43,6.15,53.3L142.8,157.3,109,121.77Z"/><polygon class="cls-1" points="92.76 68.88 97.75 90.82 48.56 98.13 92.76 68.88"/><path class="cls-2" d="M92.6,69.29l4.84,21.32-47.8,7.1,43-28.42m.33-.81L47.49,98.54,98.05,91,92.93,68.48Z"/><polygon class="cls-1" points="79.03 115.79 97.97 91.54 108.6 121.44 79.03 115.79"/><path class="cls-2" d="M97.88,92.05l10.34,29.07-28.75-5.49L97.88,92.05m.17-1L78.58,116l30.4,5.81L98.05,91Z"/><polygon class="cls-1" points="48.01 98.72 96.36 91.53 58.13 109.17 48.01 98.72"/><path class="cls-2" d="M94.67,92,58.19,108.87l-9.67-10L94.67,92m3.38-1L47.49,98.54l10.59,10.93L98.05,91Z"/><polygon class="cls-1" points="97.25 91.66 89.61 101.59 74.97 101.7 97.25 91.66"/><path class="cls-2" d="M96.44,92.3l-7,9-13.33.1L96.44,92.3M98.05,91,73.79,102l15.95-.12L98.05,91Z"/><polygon class="cls-1" points="105.79 39.25 92.73 68.31 49.31 97.04 105.79 39.25"/><path class="cls-2" d="M105,40.43,92.53,68.14,51.13,95.53,105,40.43m1.61-2.36L47.49,98.54,92.93,68.48l13.66-30.41Z"/><polygon class="cls-1" points="80.37 40.79 93.43 47.98 65.67 63.33 80.37 40.79"/><path class="cls-2" d="M80.45,41.12,92.91,48,66.43,62.62l14-21.5m-.17-.66L64.91,64,94,48,80.28,40.46Z"/><polygon class="cls-1" points="47.53 98.94 57.72 109.46 17.95 147.27 47.53 98.94"/><path class="cls-2" d="M47.58,99.35l9.79,10.11L19.15,145.78,47.58,99.35m-.09-.81L16.74,148.76l41.34-39.29L47.49,98.54Z"/><polygon class="cls-1" points="78.82 116.26 108.28 121.89 78.49 139.44 78.82 116.26"/><path class="cls-2" d="M79.07,116.57,107.59,122,78.75,139l.32-22.43m-.49-.61-.35,23.92L109,121.77,78.58,116Z"/><polygon class="cls-1" points="60.71 118.04 77.92 139.88 60.05 163.04 60.71 118.04"/><path class="cls-2" d="M61,118.75,77.6,139.88,60.31,162.3,61,118.75m-.48-1.42-.68,46.46,18.44-23.91L60.47,117.33Z"/><polygon class="cls-1" points="39.99 146.38 59.25 163.65 18.09 171.94 39.99 146.38"/><path class="cls-2" d="M40,146.74,58.71,163.5l-40,8.06L40,146.74M40,146l-22.55,26.3,42.37-8.54L40,146Z"/><polygon class="cls-1" points="78.65 139.93 108.78 122.18 114.8 174.41 78.65 139.93"/><path class="cls-2" d="M108.57,122.59l5.91,51.16L79.06,140l29.51-17.38m.41-.82L78.23,139.88l36.9,35.19L109,121.77Z"/><polygon class="cls-1" points="60.23 163.63 78.26 140.25 114.33 174.65 60.23 163.63"/><path class="cls-2" d="M78.29,140.62l35.24,33.61L60.67,163.46l17.62-22.84m-.06-.74L59.79,163.79l55.34,11.28-36.9-35.19Z"/><polygon class="cls-1" points="60.96 117.54 78.32 116.23 78 139.17 60.96 117.54"/><path class="cls-2" d="M78.07,116.5l-.31,22-16.32-20.7,16.63-1.26m.51-.54-18.11,1.37,17.76,22.55L78.58,116Z"/><polygon class="cls-1" points="60.58 164.21 113.63 175.02 76.95 179.93 60.58 164.21"/><path class="cls-2" d="M61.38,164.63,112.13,175,77,179.66l-15.66-15m-1.59-.84,17.08,16.4,38.26-5.12L59.79,163.79Z"/><polygon class="cls-1" points="18.57 173.1 61.75 191.6 38.7 192.58 18.57 173.1"/><path class="cls-2" d="M19.72,173.86,60.64,191.4l-21.84.92L19.72,173.86m-2.3-1.53,21.18,20.5,24.26-1L17.42,172.33Z"/><polygon class="cls-1" points="17 148.98 39.37 146.35 17.65 171.68 17 148.98"/><path class="cls-2" d="M38.76,146.67,17.89,171l-.64-21.83,21.51-2.53M40,146l-23.23,2.73.68,23.57L40,146Z"/><polygon class="cls-1" points="40.3 145.99 60.21 118.13 59.55 163.24 40.3 145.99"/><path class="cls-2" d="M60,118.92l-.65,43.77L40.64,146l19.31-27m.52-1.59L40,146l19.82,17.76.68-46.46Z"/><polygon class="cls-1" points="94.13 48.15 103.77 40.59 58.66 86.75 94.13 48.15"/><path class="cls-2" d="M101,43.13,69.82,75,94.29,48.35,101,43.13m5.64-5.06L94,48,47.49,98.54l59.1-60.47Z"/><polygon class="cls-1" points="51.13 78.82 76.7 45.54 43.39 96.99 51.13 78.82"/><path class="cls-2" d="M73.1,50.64,44.76,94.41,51.34,79,73.1,50.64m7.18-10.18L50.9,78.72,42,99.56l38.26-59.1Z"/><polygon class="cls-1" points="16.53 191.9 13.88 188.07 35.67 192.49 16.53 191.9"/><path class="cls-2" d="M14.44,188.44l18.29,3.71-16.06-.49-2.23-3.22m-1.12-.73,3.08,4.44,22.2.68-25.28-5.12Z"/><polygon class="cls-1" points="0.55 172.58 5.31 172.58 12.16 185.99 0.55 172.58"/><path class="cls-2" d="M5.16,172.83,11,184.27,1.09,172.83H5.16m.31-.5H0l13.32,15.38L5.47,172.33Z"/><polygon class="cls-1" points="60.11 164.45 76.49 180.18 63.06 191.32 60.11 164.45"/><path class="cls-2" d="M60.43,165.11l15.69,15L63.26,190.83l-2.83-25.72m-.64-1.32,3.07,28,14-11.62-17.08-16.4Z"/><polygon class="cls-1" points="58.02 110.15 60.2 117.28 41.58 143.35 58.02 110.15"/><path class="cls-2" d="M58,110.82l2,6.42L43.18,140.67,58,110.82m.11-1.35L40,146l20.5-28.7-2.39-7.86Z"/><polygon class="cls-1" points="57.23 110.63 39.81 145.79 17.46 148.42 57.23 110.63"/><path class="cls-2" d="M56.38,111.78,39.64,145.56l-21.47,2.53,38.21-36.31m1.7-2.31L16.74,148.76,40,146l18.11-36.56Z"/><polygon class="cls-1" points="18.26 172.42 59.57 164.09 62.57 191.41 18.26 172.42"/><path class="cls-2" d="M59.35,164.39,62.27,191,19.1,172.51l40.25-8.12m.44-.6-42.37,8.54,45.44,19.48-3.07-28Z"/><polygon class="cls-1" points="11.15 152 16.19 149.34 6.4 169.8 11.15 152"/><path class="cls-2" d="M15.64,149.91,7.33,167.27l4-15.1,4.28-2.26m1.1-1.15-5.81,3.07-5.46,20.5,11.27-23.57Z"/><polygon class="cls-1" points="65.09 64.22 92.5 49.06 43.48 97.77 65.09 64.22"/><path class="cls-2" d="M91.05,50.15,44.93,96,65.26,64.41,91.05,50.15M94,48,64.91,64,42,99.56,94,48Z"/><polygon class="cls-1" points="10.13 153.88 5.36 171.67 0.43 172.05 10.13 153.88"/><path class="cls-2" d="M9.32,155.92,5.16,171.43l-4.29.33,8.45-15.84m1.61-4.09L0,172.33l5.55-.42,5.38-20.08Z"/><polygon class="cls-1" points="42.24 106.64 16.56 148.57 11.71 151.14 42.24 106.64"/><path class="cls-2" d="M37,114.73l-20.6,33.65-3.9,2.06L37,114.73m10.5-16.19L10.93,151.83l5.81-3.07L47.49,98.54Z"/><polygon class="cls-1" points="58.38 109.61 72.82 102.7 60.58 116.82 58.38 109.61"/><path class="cls-2" d="M71.84,103.44,60.68,116.32l-2-6.58,13.16-6.3m2-1.48-15.71,7.51,2.39,7.86L73.79,102Z"/><polygon class="cls-1" points="5.86 171.75 16.52 149.79 17.17 172.07 5.86 171.75"/><path class="cls-2" d="M16.3,150.81l.61,21-10.66-.31,10.05-20.7m.44-2.05L5.47,172l12,.34-.68-23.57Z"/><polygon class="cls-1" points="13.63 187.51 17.55 172.81 37.82 192.42 13.63 187.51"/><path class="cls-2" d="M17.69,173.28,37,192l-23.09-4.68,3.75-14m-.27-.95-4.1,15.38,25.28,5.12L17.51,172.41l-.09-.08Z"/><polygon class="cls-1" points="5.88 172.25 17.1 172.57 13.25 187 5.88 172.25"/><path class="cls-2" d="M6.29,172.52l10.49.29-3.6,13.49L6.29,172.52M5.47,172l7.85,15.72,4.1-15.38-12-.34Z"/><polygon class="cls-1" points="10.17 149.56 10.67 151.8 2.73 166.69 10.17 149.56"/><path class="cls-2" d="M10.09,150.37l.31,1.39-4.95,9.29,4.64-10.68m.16-1.61L0,172.33l10.93-20.5-.68-3.07Z"/><polygon class="cls-1" points="42.18 99.79 46.94 98.9 15.1 145.32 42.18 99.79"/><path class="cls-2" d="M46.39,99.25,19.27,138.8,42.34,100l4-.76m1.1-.71-5.47,1L10.93,151.83,47.49,98.54Z"/><polygon class="cls-1" points="10.52 148.81 34.88 111.09 11.04 151.16 10.52 148.81"/><path class="cls-2" d="M27.73,122.61,11.15,150.5l-.37-1.64,17-26.25M42,99.56l-31.77,49.2.68,3.07L42,99.56Z"/><polygon class="cls-1" points="86.34 55.89 47.36 98.31 42.77 99.17 86.34 55.89"/><path class="cls-2" d="M78.72,63.81,47.23,98.08l-3.7.69,35.19-35M94,48,42,99.56l5.47-1L94,48Z"/><polygon class="cls-3" points="195.42 42.51 192.68 48.66 161.25 37.05 166.38 33.29 195.42 42.51"/><polygon class="cls-3" points="216.94 69.84 195.42 42.51 192.68 48.66 212.33 76.33 216.94 69.84"/><polygon class="cls-3" points="117.86 29.53 111.03 22.7 93.95 47.98 117.86 29.53"/><polygon class="cls-3" points="92.92 68.47 110.35 29.53 168.43 0.83 166.38 33.29 92.92 68.47"/><polygon class="cls-3" points="216.94 69.84 195.07 99.91 204.64 116.99 239.49 72.92 216.94 69.84"/><polygon class="cls-3" points="124.7 68.47 145.2 60.28 133.24 53.78 124.7 68.47"/><polygon class="cls-3" points="92.92 68.47 166.38 33.29 124.7 68.47 92.92 68.47"/><polygon class="cls-3" points="93.95 47.98 80.28 40.46 111.03 22.7 93.95 47.98"/><polygon class="cls-3" points="209.08 20.3 195.42 42.51 166.38 33.29 168.43 0.83 209.08 20.3"/><polygon class="cls-3" points="216.94 69.84 195.42 42.51 209.08 20.3 239.49 72.92 216.94 69.84"/><polygon class="cls-3" points="173.21 114.25 195.07 99.91 204.64 116.99 171.5 123.14 173.21 114.25"/><polygon class="cls-3" points="147.25 112.2 173.21 114.25 171.5 123.14 147.25 112.2"/><polygon class="cls-1" points="180.78 46.94 209.55 65 143.64 89.76 180.78 46.94"/><path class="cls-2" d="M180.82,47.26,209,65,144.47,89.18l36.35-41.92m-.09-.65L142.8,90.34l67.31-25.28L180.73,46.61Z"/><polygon class="cls-1" points="207.92 66.15 176.54 86 144.84 89.84 207.92 66.15"/><path class="cls-2" d="M205.73,67.24,176.45,85.76l-29.57,3.58,58.85-22.1m4.38-2.18L142.8,90.34l33.83-4.1,33.48-21.18Z"/></g></g></svg>